<svg xmlns="http://www.w3.org/2000/svg" width="96.023mm" height="12.193mm" viewBox="0 0 272.191 34.563"><title>top-logo</title><g id="background"><path d="M49.185,16.073a1.465,1.465,0,0,0-2.07-.127l-4.324,3.828L30.578,30.581a4.2,4.2,0,0,1-3.639.952l-6.981-1.547-8.43-1.86L5.617,26.818l-.845-.189a2.607,2.607,0,0,1-1.785-2.47,2.56,2.56,0,0,1,.5-1.532,2.489,2.489,0,0,1,.922-.783,2.521,2.521,0,0,1,1.177-.286c.069,0,.139.006.208.006l6.093,1.316,14.131,3.056a5.6,5.6,0,0,0,4.919-1.279L39.629,17,48.5,9.189a2.826,2.826,0,0,0-1.273-4.876l-1.106-.237L38.062,2.334,27.855.13a5.6,5.6,0,0,0-4.918,1.281L9.3,13.387l-4.1,3.6L1.636,20.123a3.951,3.951,0,0,0-.384.517,2.873,2.873,0,0,0-.175.232,5.576,5.576,0,0,0-.818,1.616A5.518,5.518,0,0,0,0,24.16a5.58,5.58,0,0,0,1.063,3.274A5.437,5.437,0,0,0,2.3,28.678a5.342,5.342,0,0,0,1.615.812l.063.022L10.2,30.876l5.89,1.287L26.317,34.4a6.816,6.816,0,0,0,1.5.162,7.12,7.12,0,0,0,4.7-1.771l.349-.307L45.015,21.732l4.044-3.581A1.474,1.474,0,0,0,49.185,16.073Z" fill="#fff"/></g><g id="レイヤー_1" data-name="レイヤー 1"><path d="M72.846,10.223h3.023v2.663H71.01a21.3,21.3,0,0,1-3.132,3.348h6.516V18.9a7.719,7.719,0,0,1-5.076,4v1.584a30.412,30.412,0,0,0,6.551-1.188v2.52A31.387,31.387,0,0,1,69.318,27v2.771c0,2.412-1.044,3.6-3.564,3.6H61.939V30.884h3.276c1.043,0,1.223-.468,1.223-1.44V27.212c-1.943.108-4,.108-6.227.108V24.765c2.2,0,4.284,0,6.227-.108V21.921a8.264,8.264,0,0,0,5.22-3.095H64.315a21.527,21.527,0,0,1-5.112,2.2v-3.06a18.883,18.883,0,0,0,8.135-5.075H59.2V10.223H64.5V5.759H60.211V3.167H64.5V.972h2.88V3.167h4.1V5.759h-4.1v4.464H69.5A23.214,23.214,0,0,0,73.35.972h2.915A26.988,26.988,0,0,1,72.846,10.223ZM84.112,28.04a21.062,21.062,0,0,1-7.595,5.328v-3.42a17.864,17.864,0,0,0,5.723-4.391A26.11,26.11,0,0,1,78.353,15.19h2.879a20.517,20.517,0,0,0,2.808,7.919c2.448-3.924,3.636-9,3.78-15.19H82.168a15.552,15.552,0,0,1-5.651,8.927V12.67c2.484-2.628,3.42-6.119,3.42-11.7H82.96a33.829,33.829,0,0,1-.251,3.959h8.962V7.919H90.664c-.144,6.911-1.548,13.03-4.716,17.782a15.3,15.3,0,0,0,5.723,4.175v3.492A19.166,19.166,0,0,1,84.112,28.04Z" fill="#fff"/><path d="M104.346,14.83V33.368h-3.1V18.286A28.6,28.6,0,0,1,95.2,26.349V21.921c1.872-1.62,5.544-7.415,6.047-12.238V8.027H95.2V5h6.047V.972h3.1V5h5.615V8.027h-5.615v2.915l5.615,5.256v4Zm21.345-6.551V29.264c0,2.952-1.8,4.1-4.247,4.1h-4.355V30.344h3.491a1.96,1.96,0,0,0,1.98-2.016V8.279h-1.4c-.648,8.207-4.427,16.449-12.562,20.985V25.2c5.363-3.1,9.286-9.863,9.934-16.918h-7.09V5.255H122.56V.972h3.131V5.255h1.944V8.279Z" fill="#fff"/><path d="M137.071,12.886v17.1c4.391-.252,7.019-.792,9.394-1.908v3.06c-2.843,1.259-6.946,1.836-15.262,1.836v-2.88h2.772V.972h3.1V9.863h9.43v3.023ZM160.18,32.935h-7.307a4.194,4.194,0,0,1-4.14-4.175V.972H151.9V11.23l11.734-5v3.2L151.9,14.506V27.932a1.915,1.915,0,0,0,1.835,1.944h6.3a5.363,5.363,0,0,0,3.6-1.188v3.384A6.322,6.322,0,0,1,160.18,32.935Z" fill="#fff"/><path d="M176.382,30.02v3.348H173.5V30.02h-6.263V27.428H173.5V24.3h-5.687V9.287H173.5V6.227h-6.263V3.671H173.5V.972h2.88v2.7h6.012V6.227h-6.012v3.06h5.652V24.3h-5.652v3.131h6.012V30.02Zm-2.555-18.214h-3.672v3.888h3.672Zm0,6.084h-3.672v3.851h3.672Zm5.9-6.084h-3.672v3.888h3.672Zm0,6.084h-3.672v3.851h3.672Zm3.959-11.735V3.275h6.66V.972h2.807v2.3h6.479v2.88Zm0,10.151v-3.1c2.16-.792,3.024-2.664,3.24-5.435h2.807C189.269,12.022,187.4,15.01,183.689,16.306Zm7.991,12.85a18.505,18.505,0,0,1-7.991,4.212V30.344a15.762,15.762,0,0,0,6.083-3.312,23.086,23.086,0,0,1-4.247-10.978H188.3a18.448,18.448,0,0,0,3.383,8.891,18.041,18.041,0,0,0,3.312-8.891h2.772a22.661,22.661,0,0,1-4.176,10.978,16.437,16.437,0,0,0,6.047,3.312v3.024A18.766,18.766,0,0,1,191.68,29.156Zm4.967-14.074-3.059-7.307h2.772l3.275,7.307Z" fill="#fff"/><path d="M204.855,33.1V30.294h3.618V33.1Z" fill="#fff"/><path d="M221.879,33.179h-1.417c-5.995,0-8.525-2.758-8.525-8.451V20.757c0-5.693,2.631-8.349,8.525-8.349h1.569c6.072,0,7.919,2.859,7.919,7.261h-2.227c0-3.213-1.366-5.06-5.692-5.06h-1.569c-4.4,0-6.274,1.923-6.274,6.148v3.971c0,4.5,2.075,6.249,6.274,6.249h1.417c4.655,0,5.844-2,5.844-5.439h2.227C229.95,29.789,228.685,33.179,221.879,33.179Z" fill="#fff"/><path d="M241.761,33.153h-1.215c-5.794,0-8.349-2.606-8.349-8.3v-4.1c0-5.844,2.682-8.324,8.349-8.324h1.215c5.667,0,8.4,2.631,8.4,8.324v4.1C250.16,30.547,247.554,33.153,241.761,33.153Zm6.173-12.4c0-4.453-2.176-6.1-6.173-6.1h-1.215c-4.023,0-6.2,1.644-6.2,6.1v4.1c0,4.453,2.175,6.122,6.2,6.122h1.215c4,0,6.173-1.669,6.173-6.122Z" fill="#fff"/><path d="M270.041,33.1V14.457L263.716,33.1h-2.2L255.19,14.457V33.1h-2.15V12.509h3.542l6.046,18.342,6.047-18.342h3.516V33.1Z" fill="#fff"/></g></svg>